HIERARCHY
ROOT Hips
{
  OFFSET 0 0 0
  CHANNELS 6 Xposition Yposition Zposition Zrotation Xrotation Yrotation
  JOINT Spine
  {
    OFFSET 0.00000000 0.00000000 0.00000000
    CHANNELS 3 Zrotation Xrotation Yrotation
    JOINT Spine1
    {
      OFFSET 0.19000000 0.00000000 0.00000000
      CHANNELS 3 Zrotation Xrotation Yrotation
      JOINT Neck
      {
        OFFSET 0.22500000 0.00600000 0.00000000
        CHANNELS 3 Zrotation Xrotation Yrotation
        JOINT Head
        {
          OFFSET 0.14000000 0.00030878 0.00000000
          CHANNELS 3 Zrotation Xrotation Yrotation
          End Site
          {
            OFFSET 0.17000000 0.00000000 0.00000000
          }
        }
      }
      JOINT LeftShoulder
      {
        OFFSET 0.19800000 0.03700000 0.04300000
        CHANNELS 3 Zrotation Xrotation Yrotation
        JOINT LeftArm
        {
          OFFSET 0.08000000 0.00000000 0.00000000
          CHANNELS 3 Zrotation Xrotation Yrotation
          JOINT LeftForeArm
          {
            OFFSET 0.15200000 0.00000000 0.00000000
            CHANNELS 3 Zrotation Xrotation Yrotation
            JOINT LeftHand
            {
              OFFSET 0.17800000 0.00000000 0.00000000
              CHANNELS 3 Zrotation Xrotation Yrotation
              End Site
              {
                OFFSET 0.07200000 0.00000000 0.00000000
              }
            }
          }
        }
      }
      JOINT RightShoulder
      {
        OFFSET 0.19800000 0.03700000 -0.04300000
        CHANNELS 3 Zrotation Xrotation Yrotation
        JOINT RightArm
        {
          OFFSET 0.08000000 0.00000000 0.00151654
          CHANNELS 3 Zrotation Xrotation Yrotation
          JOINT RightForeArm
          {
            OFFSET 0.15200000 0.00000000 0.00000000
            CHANNELS 3 Zrotation Xrotation Yrotation
            JOINT RightHand
            {
              OFFSET 0.17800000 0.00000000 0.00000000
              CHANNELS 3 Zrotation Xrotation Yrotation
              End Site
              {
                OFFSET 0.07200000 0.00000000 0.00000000
              }
            }
          }
        }
      }
    }
  }
  JOINT LeftUpLeg
  {
    OFFSET 0.05984250 -0.07666000 0.04788790
    CHANNELS 3 Zrotation Xrotation Yrotation
    JOINT LeftLeg
    {
      OFFSET 0.16000000 0.00000000 0.00000000
      CHANNELS 3 Zrotation Xrotation Yrotation
      JOINT LeftFoot
      {
        OFFSET 0.18000000 0.00000000 0.00000000
        CHANNELS 3 Zrotation Xrotation Yrotation
        End Site
        {
          OFFSET 0.00000000 -0.10800000 0.00000000
        }
      }
    }
  }
  JOINT RightUpLeg
  {
    OFFSET 0.05984250 -0.07665980 -0.04788790
    CHANNELS 3 Zrotation Xrotation Yrotation
    JOINT RightLeg
    {
      OFFSET 0.16000000 0.00000000 0.00000000
      CHANNELS 3 Zrotation Xrotation Yrotation
      JOINT RightFoot
      {
        OFFSET 0.18000000 0.00000000 0.00000000
        CHANNELS 3 Zrotation Xrotation Yrotation
        End Site
        {
          OFFSET 0.00000000 -0.10800000 0.00000000
        }
      }
    }
  }
  JOINT Tail
  {
    OFFSET 0.06836960 -0.00722574 0.00000000
    CHANNELS 3 Zrotation Xrotation Yrotation
    JOINT Tail1
    {
      OFFSET 0.12000000 0.00000000 0.00000000
      CHANNELS 3 Zrotation Xrotation Yrotation
      End Site
      {
        OFFSET 0.12000000 0.00000000 0.00000000
      }
    }
  }
}
MOTION
Frames:	12
Frame Time:	0.0166667
0.0000000 0.4390700 0.0000000 -3.70041 2.18349 0.14118 175.661 2.12471 1.27603 4.10648 1.10673 6.53497 23.211 0.904456 -6.43776 -126.106 76.2778 131.311 -114.133 -40.594 -139.91 138.882 12.9271 -116.821 -54.4021 -13.533 9.55529 -5.82672 2.37343 -6.25357 74.0652 -30.1105 40.6482 22.1339 -30.3435 -39.11 -37.9529 -14.6466 1.24064 -13.8205 -0.351208 5.04132 -122.772 -2.49569 -13.1369 108.099 15.0563 -1.25514 29.7524 -2.70913 -4.57772 -106.806 -0.481087 1.44264 95.0921 1.21796 -2.85378 57.5206 -0.588621 -2.88675 -66.0769 52.69 27.3004 -27.6443 -71.3582 -28.3687 
-0.0772788 0.4399360 0.0012244 -6.70320 4.78366 -2.05702 -178.144 2.94148 -2.01529 5.5365 1.79816 10.3902 11.5572 1.61812 -12.6256 -122.477 74.5414 130.36 -113.995 -42.1661 -136.922 138.909 8.28469 -115.837 -55.2896 -4.90846 7.94986 -7.0622 0.0689963 1.36062 75.6442 -26.6017 36.9367 41.0524 -41.031 -27.3152 -60.7485 -17.1662 -3.14824 -19.1606 -2.76897 13.8598 -131.398 -1.59343 -14.3559 114.799 16.109 -1.35612 17.9819 -2.56381 -4.15813 -115.822 -0.025125 3.87307 107.15 2.2743 -3.11497 41.3332 -1.585 -3.42652 -70.6107 48.7229 34.8667 -55.0883 -77.6085 -55.0793 
-0.1564807 0.4403230 0.0007478 -11.8309 6.81645 -3.59122 -170.936 2.79831 -3.49183 9.14837 2.38338 10.2675 -3.65732 2.98021 -15.5009 -116.503 70.8543 128.505 -114.615 -43.4388 -136.226 137.893 -4.69869 -116.576 -59.8682 -6.09588 6.47401 -8.69349 2.23271 -9.49881 76.8348 -24.5956 35.4934 51.004 -42.6827 -26.1329 -65.0693 -23.3593 -2.79558 -24.1361 -4.06038 17.1572 -137.287 -1.81654 -16.1503 115.449 12.6608 -0.979055 13.9618 -2.39781 -3.83278 -122.474 -2.15701 4.68737 116.929 -6.03853 -3.61804 22.2743 -1.80797 -2.89858 -68.6683 43.2285 40.25 -85.2757 -79.6124 -82.829 
-0.2355360 0.4394530 -0.0006542 -19.1093 8.80219 -3.98675 -161.654 2.40576 -4.39882 11.364 2.82245 8.87079 -15.9118 6.05039 -15.1066 -117.348 71.2636 127.015 -113.385 -41.4659 -136.705 141.18 -24.3462 -117.303 -67.0902 12.9869 8.03413 -30.3132 4.0918 -15.5824 77.4309 -23.853 35.5639 57.0921 -45.6089 -28.5025 -60.3382 -26.1942 -0.313991 -27.7205 -5.72914 20.3116 -138.905 -2.48964 -18.8466 110.824 12.4723 0.142844 11.2479 -2.42897 -3.99485 -126.219 -3.27711 4.65564 125.865 -8.26327 -3.5916 7.90445 -2.35077 -3.51715 -56.9586 35.9311 41.939 -71.3756 -80.2808 -65.5133 
-0.3125165 0.4375060 -0.0033481 -28.1627 8.73302 -2.38320 -151.509 1.52737 -3.99098 11.7644 2.33392 7.22039 -24.0244 7.64352 -10.254 -119.853 76.1424 124.214 -112.519 -39.627 -137.847 140.208 -32.5854 -112.493 -64.3589 13.2524 7.1074 -35.7356 6.62872 -19.7415 77.0789 -25.4322 39.145 50.5823 -51.0359 -39.6105 -44.5983 -22.2377 2.94571 -26.1199 -4.09956 16.7119 -136.47 -3.99371 -19.6525 101.376 15.8652 2.06419 14.9586 -2.69674 -4.79258 -126.605 -4.13762 6.34406 130.283 -7.59187 -3.33595 -3.48093 -2.71753 -4.37132 -38.7417 30.6514 41.2674 -29.6709 -75.815 -20.6889 
-0.3884167 0.4337890 -0.0077505 -36.0731 8.43295 0.62872 -141.553 0.808072 -3.64889 6.89605 1.51879 7.03569 -25.8335 7.38158 -4.77883 -123.007 78.7971 122.673 -109.111 -34.1745 -139.485 142.362 -38.6553 -110.987 -49.1644 18.5232 5.05431 -43.6883 10.1896 -24.4966 77.4671 -25.6538 41.4336 28.7783 -52.548 -59.0025 -19.9038 -14.223 3.44221 -17.1177 0.0315071 5.78717 -132.385 -2.93723 -18.3939 89.1901 19.885 3.69071 25.522 -3.11398 -5.59866 -127.137 -3.209 7.88964 129.21 -7.08317 -3.27581 -10.0398 -2.75872 -4.72116 -18.1719 26.8728 35.1371 -10.3439 -64.6933 0.646327 
-0.4642792 0.4280030 -0.0127947 -39.6604 8.03285 3.64075 -137.173 1.08608 -3.35159 2.59343 1.42541 7.7584 -26.1653 4.67052 0.837554 -123.715 79.9846 119.901 -107.016 -30.4464 -141.603 148.169 -39.3043 -107.997 -26.2331 17.0967 2.16371 -44.4326 9.77364 -23.1647 76.743 -27.0338 42.4208 24.939 -51.6911 -64.9712 -8.28109 -17.9563 4.07642 -10.0116 5.27661 -13.9325 -129.266 -2.35542 -15.7953 82.592 20.0101 3.60716 34.826 -3.17454 -5.60195 -131.485 -1.58446 8.98867 122.658 -6.90279 -3.58608 -6.58502 -2.61858 -4.12354 -2.86154 23.8479 25.4749 -4.75797 -53.4778 6.95121 
-0.5327349 0.4203470 -0.0165381 -40.3844 7.75037 6.04025 -137.596 2.22885 -0.413947 0.755503 1.61056 4.80094 -27.0758 -0.0284104 6.36704 -121.157 79.2803 119.366 -107.766 -30.8167 -143.075 150.109 -37.4009 -103.89 -7.87452 14.4267 -2.60812 -33.8492 3.14195 -12.6617 75.9298 -28.9024 44.2118 28.1979 -62.4795 -62.0708 -38.9359 -12.9466 -1.71026 8.74578 3.46566 -33.9569 -121.752 -3.49546 -14.7395 80.7176 16.874 2.74005 36.777 -2.89304 -5.15358 -136.548 -0.108353 10.1018 110.868 -9.44133 -4.4138 4.17596 -2.0571 -2.69657 6.23918 21.7577 15.1829 -3.64391 -45.0094 7.2676 
-0.6002229 0.4093340 -0.0175506 -37.8469 8.39314 7.75378 -139.764 3.41741 4.26957 -3.95351 1.6146 -0.279485 -26.0946 -1.77434 9.54069 -118.168 77.9617 122.737 -108.577 -31.738 -143.347 148.701 -41.4649 -102.771 -4.13163 11.827 -6.96324 -14.0766 -3.44907 7.42981 75.4958 -30.2641 45.9268 20.97 -69.4829 -63.4755 -70.0073 -13.9949 -9.84692 17.2486 2.18948 -62.125 -109.554 -2.03752 -14.5565 86.8639 22.7896 1.58849 5.08084 -3.14615 -6.76408 -140.317 0.921745 10.068 97.4576 -15.2151 -6.08455 21.581 -0.68414 -0.936899 8.93923 20.3397 5.75449 -4.82339 -39.3985 4.59988 
-0.6738230 0.3966610 -0.0182857 -32.1493 10.1050 8.73026 -145.963 4.63629 5.92573 -7.98048 2.23257 0.507046 -23.5586 -0.208386 7.2872 -117.065 75.2399 127.755 -108.544 -32.1507 -142.29 141.867 -57.2237 -107.65 -35.5311 -16.7969 -4.22776 28.9571 3.64519 5.83169 74.6717 -32.1304 47.2778 25.4878 -69.6419 -60.6582 -89.5841 -2.95148 -10.7432 26.2543 -4.33271 -63.0444 -103.276 -2.31336 -16.6433 94.0492 21.6798 1.33514 -14.746 -2.60867 -6.67497 -140.968 3.41535 6.38726 84.5828 -18.0958 -7.83068 39.9554 1.14847 0.216689 6.89421 19.1361 -2.98986 -7.25772 -34.8666 0.562722 
-0.7428564 0.3870140 -0.0181978 -25.7462 11.2758 8.73742 -153.315 5.39075 7.07398 -11.2791 2.52543 2.10557 -18.32 0.13107 4.94083 -115.542 72.797 129.397 -108.822 -33.5133 -140.069 126.686 -65.6813 -122.092 -52.9594 -66.0941 10.9756 41.9143 -4.75419 -44.6394 74.0619 -33.451 48.0605 33.801 -61.8951 -58.3325 -100.241 16.8911 -10.3034 45.5299 -13.8627 -47.3867 -101.05 -2.38534 -20.0752 97.2891 27.1846 1.72569 -18.6244 -2.73856 -8.38243 -134.588 5.9043 -0.923524 79.6283 -10.3791 -6.80882 35.5322 0.127094 -0.791774 3.31838 18.6852 -9.92856 -9.64952 -30.1569 -3.92722 
-0.8075243 0.3747070 -0.0191537 -17.9636 10.4940 8.19631 -163.443 5.03936 9.64589 -13.4263 2.1967 1.85464 -10.3653 -0.355279 3.30985 -113.986 71.1994 129.08 -109.234 -35.2815 -137.558 112.789 -67.2447 -140.771 35.6622 -76.1483 122.189 33.0126 -6.92437 -70.9289 73.8134 -33.3346 47.0437 40.3583 -47.4944 -55.3485 -102.887 27.2857 -12.0669 46.5917 -8.27153 -24.7618 -101.028 -2.56879 -19.387 103.969 26.1408 0.286727 -18.6488 -2.77076 -9.05139 -126.281 7.33738 -5.16249 85.4549 -3.83976 -5.97964 -0.550376 -2.16344 -2.70874 -2.19879 20.7029 -15.2993 -10.9572 -25.6965 -8.25313 
